REM DIRINDEX 1\2,1\3,1\4,1\5
REM DIRNAME cjc046,folder01,folder02,folder03,folder04
TITLE ""
FILE "106.mp3" MP3
  TRACK 01 AUDIO
    TITLE "0:"
    INDEX 01 00:00:00
  TRACK 02 AUDIO
    TITLE "2:cjc046_2348"
    INDEX 01 00:00:15
  TRACK 03 AUDIO
    TITLE "0:"
    INDEX 01 00:01:17
  TRACK 04 AUDIO
    TITLE "3:cjc046_2349"
    INDEX 01 00:01:46
  TRACK 05 AUDIO
    TITLE "0:"
    INDEX 01 00:02:65
  TRACK 06 AUDIO
    TITLE "4:cjc046_2350"
    INDEX 01 00:03:02
  TRACK 07 AUDIO
    TITLE "0:"
    INDEX 01 00:04:05
  TRACK 08 AUDIO
    TITLE "2:cjc046_2351"
    INDEX 01 00:05:14
  TRACK 09 AUDIO
    TITLE "0:"
    INDEX 01 00:06:26
  TRACK 10 AUDIO
    TITLE "3:cjc046_2352"
    INDEX 01 00:06:53
  TRACK 11 AUDIO
    TITLE "0:"
    INDEX 01 00:07:70
  TRACK 12 AUDIO
    TITLE "4:cjc046_2353"
    INDEX 01 00:08:11
  TRACK 13 AUDIO
    TITLE "0:"
    INDEX 01 00:09:20
  TRACK 14 AUDIO
    TITLE "2:cjc046_2354"
    INDEX 01 00:10:31
  TRACK 15 AUDIO
    TITLE "0:"
    INDEX 01 00:11:44
  TRACK 16 AUDIO
    TITLE "3:cjc046_2355"
    INDEX 01 00:11:62
  TRACK 17 AUDIO
    TITLE "0:"
    INDEX 01 00:12:71
  TRACK 18 AUDIO
    TITLE "4:cjc046_2356"
    INDEX 01 00:13:12
  TRACK 19 AUDIO
    TITLE "0:"
    INDEX 01 00:14:23
  TRACK 20 AUDIO
    TITLE "2:cjc046_2357"
    INDEX 01 00:15:32
  TRACK 21 AUDIO
    TITLE "0:"
    INDEX 01 00:16:51
  TRACK 22 AUDIO
    TITLE "3:cjc046_2358"
    INDEX 01 00:17:06
  TRACK 23 AUDIO
    TITLE "0:"
    INDEX 01 00:18:42
  TRACK 24 AUDIO
    TITLE "4:cjc046_2359"
    INDEX 01 00:18:46
  TRACK 25 AUDIO
    TITLE "0:"
    INDEX 01 00:19:67
  TRACK 26 AUDIO
    TITLE "2:cjc046_2360"
    INDEX 01 00:20:73
  TRACK 27 AUDIO
    TITLE "0:"
    INDEX 01 00:21:72
  TRACK 28 AUDIO
    TITLE "3:cjc046_2361"
    INDEX 01 00:22:13
  TRACK 29 AUDIO
    TITLE "0:"
    INDEX 01 00:23:71
  TRACK 30 AUDIO
    TITLE "4:cjc046_2362"
    INDEX 01 00:24:06
  TRACK 31 AUDIO
    TITLE "0:"
    INDEX 01 00:25:05
  TRACK 32 AUDIO
    TITLE "2:cjc046_2363"
    INDEX 01 00:26:07
  TRACK 33 AUDIO
    TITLE "0:"
    INDEX 01 00:27:10
  TRACK 34 AUDIO
    TITLE "3:cjc046_2364"
    INDEX 01 00:27:39
  TRACK 35 AUDIO
    TITLE "0:"
    INDEX 01 00:29:42
  TRACK 36 AUDIO
    TITLE "4:cjc046_2365"
    INDEX 01 00:29:54
  TRACK 37 AUDIO
    TITLE "0:"
    INDEX 01 00:30:55
  TRACK 38 AUDIO
    TITLE "2:cjc046_2366"
    INDEX 01 00:31:63
  TRACK 39 AUDIO
    TITLE "0:"
    INDEX 01 00:32:66
  TRACK 40 AUDIO
    TITLE "3:cjc046_2367"
    INDEX 01 00:33:19
  TRACK 41 AUDIO
    TITLE "0:"
    INDEX 01 00:34:61
  TRACK 42 AUDIO
    TITLE "4:cjc046_2368"
    INDEX 01 00:35:00
  TRACK 43 AUDIO
    TITLE "0:"
    INDEX 01 00:36:03
  TRACK 44 AUDIO
    TITLE "2:cjc046_2369"
    INDEX 01 00:37:12
  TRACK 45 AUDIO
    TITLE "0:"
    INDEX 01 00:38:14
  TRACK 46 AUDIO
    TITLE "3:cjc046_2370"
    INDEX 01 00:38:28
  TRACK 47 AUDIO
    TITLE "0:"
    INDEX 01 00:39:74
  TRACK 48 AUDIO
    TITLE "4:cjc046_2371"
    INDEX 01 00:40:09
  TRACK 49 AUDIO
    TITLE "0:"
    INDEX 01 00:41:10
  TRACK 50 AUDIO
    TITLE "2:cjc046_2372"
    INDEX 01 00:42:19
  TRACK 51 AUDIO
    TITLE "0:"
    INDEX 01 00:43:13
  TRACK 52 AUDIO
    TITLE "3:cjc046_2373"
    INDEX 01 00:43:35
  TRACK 53 AUDIO
    TITLE "0:"
    INDEX 01 00:44:56
  TRACK 54 AUDIO
    TITLE "4:cjc046_2374"
    INDEX 01 00:44:63
  TRACK 55 AUDIO
    TITLE "0:"
    INDEX 01 00:45:59
  TRACK 56 AUDIO
    TITLE "2:cjc046_2375"
    INDEX 01 00:46:62
  TRACK 57 AUDIO
    TITLE "0:"
    INDEX 01 00:48:00
  TRACK 58 AUDIO
    TITLE "3:cjc046_2376"
    INDEX 01 00:48:22
  TRACK 59 AUDIO
    TITLE "0:"
    INDEX 01 00:50:09
  TRACK 60 AUDIO
    TITLE "4:cjc046_2377"
    INDEX 01 00:50:21
  TRACK 61 AUDIO
    TITLE "0:"
    INDEX 01 00:51:32
